<mxfile host="app.diagrams.net" agent="Mozilla/5.0 (Windows NT 10.0; Win64; x64) AppleWebKit/537.36 (KHTML, like Gecko) Chrome/138.0.0.0 Safari/537.36" version="28.0.3">
  <diagram name="Page-1" id="HQHUef7jxSKrDesPGkMt">
    <mxGraphModel dx="3284" dy="1628" grid="1" gridSize="10" guides="1" tooltips="1" connect="1" arrows="1" fold="1" page="0" pageScale="1" pageWidth="850" pageHeight="1100" background="none" math="0" shadow="0">
      <root>
        <mxCell id="0" />
        <mxCell id="1" parent="0" />
        <mxCell id="H4yRzsa07XksfTAPNPjo-109" style="edgeStyle=orthogonalEdgeStyle;rounded=0;orthogonalLoop=1;jettySize=auto;html=1;exitX=0.25;exitY=0;exitDx=0;exitDy=0;entryX=0.5;entryY=1;entryDx=0;entryDy=0;strokeColor=default;endArrow=none;endFill=0;strokeWidth=1;curved=1;" edge="1" parent="1" source="H4yRzsa07XksfTAPNPjo-1" target="H4yRzsa07XksfTAPNPjo-11">
          <mxGeometry relative="1" as="geometry" />
        </mxCell>
        <mxCell id="H4yRzsa07XksfTAPNPjo-110" style="edgeStyle=orthogonalEdgeStyle;rounded=0;orthogonalLoop=1;jettySize=auto;html=1;exitX=0.5;exitY=0;exitDx=0;exitDy=0;entryX=0;entryY=1;entryDx=0;entryDy=0;strokeColor=default;endArrow=none;endFill=0;strokeWidth=1;curved=1;" edge="1" parent="1" source="H4yRzsa07XksfTAPNPjo-1" target="H4yRzsa07XksfTAPNPjo-12">
          <mxGeometry relative="1" as="geometry" />
        </mxCell>
        <mxCell id="H4yRzsa07XksfTAPNPjo-111" style="edgeStyle=orthogonalEdgeStyle;rounded=0;orthogonalLoop=1;jettySize=auto;html=1;exitX=0;exitY=0;exitDx=0;exitDy=0;strokeColor=default;endArrow=none;endFill=0;strokeWidth=1;curved=1;" edge="1" parent="1" source="H4yRzsa07XksfTAPNPjo-1" target="H4yRzsa07XksfTAPNPjo-10">
          <mxGeometry relative="1" as="geometry" />
        </mxCell>
        <mxCell id="H4yRzsa07XksfTAPNPjo-112" style="edgeStyle=orthogonalEdgeStyle;rounded=0;orthogonalLoop=1;jettySize=auto;html=1;exitX=0;exitY=0.5;exitDx=0;exitDy=0;strokeColor=default;endArrow=none;endFill=0;strokeWidth=1;curved=1;" edge="1" parent="1" source="H4yRzsa07XksfTAPNPjo-1" target="H4yRzsa07XksfTAPNPjo-15">
          <mxGeometry relative="1" as="geometry" />
        </mxCell>
        <mxCell id="H4yRzsa07XksfTAPNPjo-138" style="edgeStyle=orthogonalEdgeStyle;rounded=0;orthogonalLoop=1;jettySize=auto;html=1;entryX=0.5;entryY=0;entryDx=0;entryDy=0;endArrow=none;endFill=0;startArrow=ERone;startFill=0;strokeWidth=2;" edge="1" parent="1" source="H4yRzsa07XksfTAPNPjo-1" target="H4yRzsa07XksfTAPNPjo-78">
          <mxGeometry relative="1" as="geometry" />
        </mxCell>
        <mxCell id="H4yRzsa07XksfTAPNPjo-155" style="edgeStyle=orthogonalEdgeStyle;rounded=0;orthogonalLoop=1;jettySize=auto;html=1;entryX=0;entryY=0.5;entryDx=0;entryDy=0;startArrow=ERmany;startFill=0;endArrow=none;endFill=0;strokeWidth=2;" edge="1" parent="1" source="H4yRzsa07XksfTAPNPjo-1" target="H4yRzsa07XksfTAPNPjo-16">
          <mxGeometry relative="1" as="geometry" />
        </mxCell>
        <mxCell id="H4yRzsa07XksfTAPNPjo-1" value="Rating" style="rounded=0;whiteSpace=wrap;html=1;fontSize=21;fontStyle=1;labelBackgroundColor=none;labelBorderColor=none;textShadow=0;fillColor=#ffe6cc;strokeColor=#d79b00;" vertex="1" parent="1">
          <mxGeometry x="-610" y="70" width="120" height="60" as="geometry" />
        </mxCell>
        <mxCell id="H4yRzsa07XksfTAPNPjo-103" style="edgeStyle=orthogonalEdgeStyle;rounded=0;orthogonalLoop=1;jettySize=auto;html=1;exitX=0.25;exitY=0;exitDx=0;exitDy=0;entryX=1;entryY=1;entryDx=0;entryDy=0;strokeColor=default;endArrow=none;endFill=0;strokeWidth=1;curved=1;" edge="1" parent="1" source="H4yRzsa07XksfTAPNPjo-2" target="H4yRzsa07XksfTAPNPjo-22">
          <mxGeometry relative="1" as="geometry" />
        </mxCell>
        <mxCell id="H4yRzsa07XksfTAPNPjo-104" style="edgeStyle=orthogonalEdgeStyle;rounded=0;orthogonalLoop=1;jettySize=auto;html=1;exitX=0.5;exitY=0;exitDx=0;exitDy=0;entryX=0.5;entryY=1;entryDx=0;entryDy=0;strokeColor=default;endArrow=none;endFill=0;strokeWidth=1;curved=1;" edge="1" parent="1" source="H4yRzsa07XksfTAPNPjo-2" target="H4yRzsa07XksfTAPNPjo-23">
          <mxGeometry relative="1" as="geometry" />
        </mxCell>
        <mxCell id="H4yRzsa07XksfTAPNPjo-105" style="edgeStyle=orthogonalEdgeStyle;rounded=0;orthogonalLoop=1;jettySize=auto;html=1;exitX=0.75;exitY=0;exitDx=0;exitDy=0;entryX=0.5;entryY=1;entryDx=0;entryDy=0;strokeColor=default;endArrow=none;endFill=0;strokeWidth=1;curved=1;" edge="1" parent="1" source="H4yRzsa07XksfTAPNPjo-2" target="H4yRzsa07XksfTAPNPjo-25">
          <mxGeometry relative="1" as="geometry" />
        </mxCell>
        <mxCell id="H4yRzsa07XksfTAPNPjo-108" style="edgeStyle=orthogonalEdgeStyle;rounded=0;orthogonalLoop=1;jettySize=auto;html=1;exitX=0.25;exitY=1;exitDx=0;exitDy=0;entryX=1;entryY=0;entryDx=0;entryDy=0;strokeColor=default;endArrow=none;endFill=0;strokeWidth=1;curved=1;" edge="1" parent="1" source="H4yRzsa07XksfTAPNPjo-2" target="H4yRzsa07XksfTAPNPjo-27">
          <mxGeometry relative="1" as="geometry" />
        </mxCell>
        <mxCell id="H4yRzsa07XksfTAPNPjo-142" style="edgeStyle=orthogonalEdgeStyle;rounded=0;orthogonalLoop=1;jettySize=auto;html=1;endArrow=none;endFill=0;startArrow=ERmany;startFill=0;strokeWidth=2;" edge="1" parent="1" source="H4yRzsa07XksfTAPNPjo-2" target="H4yRzsa07XksfTAPNPjo-17">
          <mxGeometry relative="1" as="geometry" />
        </mxCell>
        <mxCell id="H4yRzsa07XksfTAPNPjo-2" value="Menu" style="rounded=0;whiteSpace=wrap;html=1;fontSize=21;fontStyle=1;labelBackgroundColor=none;labelBorderColor=none;textShadow=0;fillColor=#fff2cc;strokeColor=#d6b656;" vertex="1" parent="1">
          <mxGeometry x="70" y="160" width="120" height="60" as="geometry" />
        </mxCell>
        <mxCell id="H4yRzsa07XksfTAPNPjo-98" style="edgeStyle=orthogonalEdgeStyle;rounded=0;orthogonalLoop=1;jettySize=auto;html=1;exitX=0.25;exitY=1;exitDx=0;exitDy=0;entryX=0.5;entryY=0;entryDx=0;entryDy=0;strokeColor=default;endArrow=none;endFill=0;strokeWidth=1;curved=1;" edge="1" parent="1" source="H4yRzsa07XksfTAPNPjo-4" target="H4yRzsa07XksfTAPNPjo-47">
          <mxGeometry relative="1" as="geometry" />
        </mxCell>
        <mxCell id="H4yRzsa07XksfTAPNPjo-99" style="edgeStyle=orthogonalEdgeStyle;rounded=0;orthogonalLoop=1;jettySize=auto;html=1;exitX=0.5;exitY=1;exitDx=0;exitDy=0;entryX=0;entryY=0;entryDx=0;entryDy=0;strokeColor=default;endArrow=none;endFill=0;strokeWidth=1;curved=1;" edge="1" parent="1" source="H4yRzsa07XksfTAPNPjo-4" target="H4yRzsa07XksfTAPNPjo-48">
          <mxGeometry relative="1" as="geometry" />
        </mxCell>
        <mxCell id="H4yRzsa07XksfTAPNPjo-101" style="edgeStyle=orthogonalEdgeStyle;rounded=0;orthogonalLoop=1;jettySize=auto;html=1;exitX=0.5;exitY=0;exitDx=0;exitDy=0;entryX=0.5;entryY=1;entryDx=0;entryDy=0;strokeColor=default;endArrow=none;endFill=0;strokeWidth=1;curved=1;" edge="1" parent="1" source="H4yRzsa07XksfTAPNPjo-4" target="H4yRzsa07XksfTAPNPjo-50">
          <mxGeometry relative="1" as="geometry" />
        </mxCell>
        <mxCell id="H4yRzsa07XksfTAPNPjo-102" style="edgeStyle=orthogonalEdgeStyle;rounded=0;orthogonalLoop=1;jettySize=auto;html=1;exitX=0;exitY=0;exitDx=0;exitDy=0;strokeColor=default;endArrow=none;endFill=0;strokeWidth=1;curved=1;" edge="1" parent="1" source="H4yRzsa07XksfTAPNPjo-4" target="H4yRzsa07XksfTAPNPjo-51">
          <mxGeometry relative="1" as="geometry" />
        </mxCell>
        <mxCell id="H4yRzsa07XksfTAPNPjo-147" style="edgeStyle=orthogonalEdgeStyle;rounded=0;orthogonalLoop=1;jettySize=auto;html=1;endArrow=none;endFill=0;strokeWidth=2;" edge="1" parent="1" source="H4yRzsa07XksfTAPNPjo-4" target="H4yRzsa07XksfTAPNPjo-19">
          <mxGeometry relative="1" as="geometry" />
        </mxCell>
        <mxCell id="H4yRzsa07XksfTAPNPjo-149" style="edgeStyle=orthogonalEdgeStyle;rounded=0;orthogonalLoop=1;jettySize=auto;html=1;entryX=0;entryY=0.5;entryDx=0;entryDy=0;endArrow=none;endFill=0;startArrow=ERmany;startFill=0;strokeWidth=2;" edge="1" parent="1" source="H4yRzsa07XksfTAPNPjo-4" target="H4yRzsa07XksfTAPNPjo-18">
          <mxGeometry relative="1" as="geometry" />
        </mxCell>
        <mxCell id="H4yRzsa07XksfTAPNPjo-4" value="Payment" style="rounded=0;whiteSpace=wrap;html=1;fontSize=21;fontStyle=1;labelBackgroundColor=none;labelBorderColor=none;textShadow=0;fillColor=#d5e8d4;strokeColor=#82b366;" vertex="1" parent="1">
          <mxGeometry x="590" y="280" width="120" height="60" as="geometry" />
        </mxCell>
        <mxCell id="H4yRzsa07XksfTAPNPjo-91" style="edgeStyle=orthogonalEdgeStyle;rounded=0;orthogonalLoop=1;jettySize=auto;html=1;exitX=0.25;exitY=0;exitDx=0;exitDy=0;entryX=0.5;entryY=1;entryDx=0;entryDy=0;strokeColor=default;endArrow=none;endFill=0;strokeWidth=1;curved=1;" edge="1" parent="1" source="H4yRzsa07XksfTAPNPjo-5" target="H4yRzsa07XksfTAPNPjo-57">
          <mxGeometry relative="1" as="geometry" />
        </mxCell>
        <mxCell id="H4yRzsa07XksfTAPNPjo-93" style="edgeStyle=orthogonalEdgeStyle;rounded=0;orthogonalLoop=1;jettySize=auto;html=1;exitX=0.75;exitY=0;exitDx=0;exitDy=0;entryX=0;entryY=1;entryDx=0;entryDy=0;strokeColor=default;endArrow=none;endFill=0;strokeWidth=1;curved=1;" edge="1" parent="1" source="H4yRzsa07XksfTAPNPjo-5" target="H4yRzsa07XksfTAPNPjo-53">
          <mxGeometry relative="1" as="geometry" />
        </mxCell>
        <mxCell id="H4yRzsa07XksfTAPNPjo-94" style="edgeStyle=orthogonalEdgeStyle;rounded=0;orthogonalLoop=1;jettySize=auto;html=1;exitX=1;exitY=0;exitDx=0;exitDy=0;entryX=0;entryY=0.5;entryDx=0;entryDy=0;strokeColor=default;endArrow=none;endFill=0;strokeWidth=1;curved=1;" edge="1" parent="1" source="H4yRzsa07XksfTAPNPjo-5" target="H4yRzsa07XksfTAPNPjo-54">
          <mxGeometry relative="1" as="geometry" />
        </mxCell>
        <mxCell id="H4yRzsa07XksfTAPNPjo-95" style="edgeStyle=orthogonalEdgeStyle;rounded=0;orthogonalLoop=1;jettySize=auto;html=1;exitX=1;exitY=0.5;exitDx=0;exitDy=0;entryX=0;entryY=0.5;entryDx=0;entryDy=0;strokeColor=default;endArrow=none;endFill=0;strokeWidth=1;curved=1;" edge="1" parent="1" source="H4yRzsa07XksfTAPNPjo-5" target="H4yRzsa07XksfTAPNPjo-55">
          <mxGeometry relative="1" as="geometry" />
        </mxCell>
        <mxCell id="H4yRzsa07XksfTAPNPjo-96" style="edgeStyle=orthogonalEdgeStyle;rounded=0;orthogonalLoop=1;jettySize=auto;html=1;exitX=1;exitY=1;exitDx=0;exitDy=0;entryX=0;entryY=0;entryDx=0;entryDy=0;strokeColor=default;endArrow=none;endFill=0;strokeWidth=1;curved=1;" edge="1" parent="1" source="H4yRzsa07XksfTAPNPjo-5" target="H4yRzsa07XksfTAPNPjo-56">
          <mxGeometry relative="1" as="geometry" />
        </mxCell>
        <mxCell id="H4yRzsa07XksfTAPNPjo-153" style="edgeStyle=orthogonalEdgeStyle;rounded=0;orthogonalLoop=1;jettySize=auto;html=1;entryX=0.5;entryY=0;entryDx=0;entryDy=0;endArrow=ERone;endFill=0;strokeWidth=2;startArrow=ERone;startFill=0;" edge="1" parent="1" source="H4yRzsa07XksfTAPNPjo-5" target="H4yRzsa07XksfTAPNPjo-80">
          <mxGeometry relative="1" as="geometry" />
        </mxCell>
        <mxCell id="H4yRzsa07XksfTAPNPjo-5" value="User" style="rounded=0;whiteSpace=wrap;html=1;fontSize=21;fontStyle=1;labelBackgroundColor=none;labelBorderColor=none;textShadow=0;fillColor=#6d8764;fontColor=#ffffff;strokeColor=#3A5431;" vertex="1" parent="1">
          <mxGeometry x="1280" y="310" width="120" height="60" as="geometry" />
        </mxCell>
        <mxCell id="H4yRzsa07XksfTAPNPjo-120" style="edgeStyle=orthogonalEdgeStyle;rounded=0;orthogonalLoop=1;jettySize=auto;html=1;exitX=0.25;exitY=1;exitDx=0;exitDy=0;strokeColor=default;endArrow=none;endFill=0;strokeWidth=1;curved=1;" edge="1" parent="1" source="H4yRzsa07XksfTAPNPjo-6" target="H4yRzsa07XksfTAPNPjo-74">
          <mxGeometry relative="1" as="geometry" />
        </mxCell>
        <mxCell id="H4yRzsa07XksfTAPNPjo-121" style="edgeStyle=orthogonalEdgeStyle;rounded=0;orthogonalLoop=1;jettySize=auto;html=1;exitX=0.5;exitY=1;exitDx=0;exitDy=0;strokeColor=default;endArrow=none;endFill=0;strokeWidth=1;curved=1;" edge="1" parent="1" source="H4yRzsa07XksfTAPNPjo-6" target="H4yRzsa07XksfTAPNPjo-73">
          <mxGeometry relative="1" as="geometry" />
        </mxCell>
        <mxCell id="H4yRzsa07XksfTAPNPjo-122" style="edgeStyle=orthogonalEdgeStyle;rounded=0;orthogonalLoop=1;jettySize=auto;html=1;exitX=1;exitY=0.5;exitDx=0;exitDy=0;entryX=0;entryY=0.5;entryDx=0;entryDy=0;strokeColor=default;endArrow=none;endFill=0;strokeWidth=1;curved=1;" edge="1" parent="1" source="H4yRzsa07XksfTAPNPjo-6" target="H4yRzsa07XksfTAPNPjo-71">
          <mxGeometry relative="1" as="geometry" />
        </mxCell>
        <mxCell id="H4yRzsa07XksfTAPNPjo-123" style="edgeStyle=orthogonalEdgeStyle;rounded=0;orthogonalLoop=1;jettySize=auto;html=1;exitX=1;exitY=0.75;exitDx=0;exitDy=0;entryX=0;entryY=0.5;entryDx=0;entryDy=0;strokeColor=default;endArrow=none;endFill=0;strokeWidth=1;curved=1;" edge="1" parent="1" source="H4yRzsa07XksfTAPNPjo-6" target="H4yRzsa07XksfTAPNPjo-72">
          <mxGeometry relative="1" as="geometry" />
        </mxCell>
        <mxCell id="H4yRzsa07XksfTAPNPjo-124" style="edgeStyle=orthogonalEdgeStyle;rounded=0;orthogonalLoop=1;jettySize=auto;html=1;exitX=1;exitY=0;exitDx=0;exitDy=0;entryX=0;entryY=0.5;entryDx=0;entryDy=0;strokeColor=default;endArrow=none;endFill=0;strokeWidth=1;curved=1;" edge="1" parent="1" source="H4yRzsa07XksfTAPNPjo-6" target="H4yRzsa07XksfTAPNPjo-70">
          <mxGeometry relative="1" as="geometry" />
        </mxCell>
        <mxCell id="H4yRzsa07XksfTAPNPjo-125" style="edgeStyle=orthogonalEdgeStyle;rounded=0;orthogonalLoop=1;jettySize=auto;html=1;exitX=0.75;exitY=0;exitDx=0;exitDy=0;strokeColor=default;endArrow=none;endFill=0;strokeWidth=1;curved=1;" edge="1" parent="1" source="H4yRzsa07XksfTAPNPjo-6" target="H4yRzsa07XksfTAPNPjo-69">
          <mxGeometry relative="1" as="geometry" />
        </mxCell>
        <mxCell id="H4yRzsa07XksfTAPNPjo-141" style="edgeStyle=orthogonalEdgeStyle;rounded=0;orthogonalLoop=1;jettySize=auto;html=1;entryX=0;entryY=0.5;entryDx=0;entryDy=0;endArrow=none;endFill=0;strokeWidth=2;startArrow=ERone;startFill=0;" edge="1" parent="1" source="H4yRzsa07XksfTAPNPjo-6" target="H4yRzsa07XksfTAPNPjo-20">
          <mxGeometry relative="1" as="geometry">
            <Array as="points">
              <mxPoint x="-660" y="910" />
              <mxPoint x="-500" y="910" />
              <mxPoint x="-500" y="1090" />
            </Array>
          </mxGeometry>
        </mxCell>
        <mxCell id="H4yRzsa07XksfTAPNPjo-6" value="Customer" style="rounded=0;whiteSpace=wrap;html=1;fontSize=21;fontStyle=1;labelBackgroundColor=none;labelBorderColor=none;textShadow=0;fillColor=#f8cecc;strokeColor=#b85450;" vertex="1" parent="1">
          <mxGeometry x="-720" y="740" width="120" height="60" as="geometry" />
        </mxCell>
        <mxCell id="H4yRzsa07XksfTAPNPjo-126" style="edgeStyle=orthogonalEdgeStyle;rounded=0;orthogonalLoop=1;jettySize=auto;html=1;exitX=1;exitY=0;exitDx=0;exitDy=0;strokeColor=default;endArrow=none;endFill=0;strokeWidth=1;curved=1;" edge="1" parent="1" source="H4yRzsa07XksfTAPNPjo-7" target="H4yRzsa07XksfTAPNPjo-32">
          <mxGeometry relative="1" as="geometry" />
        </mxCell>
        <mxCell id="H4yRzsa07XksfTAPNPjo-127" style="edgeStyle=orthogonalEdgeStyle;rounded=0;orthogonalLoop=1;jettySize=auto;html=1;exitX=0.5;exitY=0;exitDx=0;exitDy=0;entryX=0.5;entryY=1;entryDx=0;entryDy=0;strokeColor=default;endArrow=none;endFill=0;strokeWidth=1;curved=1;" edge="1" parent="1" source="H4yRzsa07XksfTAPNPjo-7" target="H4yRzsa07XksfTAPNPjo-31">
          <mxGeometry relative="1" as="geometry" />
        </mxCell>
        <mxCell id="H4yRzsa07XksfTAPNPjo-128" style="edgeStyle=orthogonalEdgeStyle;rounded=0;orthogonalLoop=1;jettySize=auto;html=1;exitX=0.25;exitY=0;exitDx=0;exitDy=0;entryX=1;entryY=1;entryDx=0;entryDy=0;strokeColor=default;endArrow=none;endFill=0;strokeWidth=1;curved=1;" edge="1" parent="1" source="H4yRzsa07XksfTAPNPjo-7" target="H4yRzsa07XksfTAPNPjo-30">
          <mxGeometry relative="1" as="geometry" />
        </mxCell>
        <mxCell id="H4yRzsa07XksfTAPNPjo-129" style="edgeStyle=orthogonalEdgeStyle;rounded=0;orthogonalLoop=1;jettySize=auto;html=1;exitX=0;exitY=0;exitDx=0;exitDy=0;entryX=1;entryY=1;entryDx=0;entryDy=0;strokeColor=default;endArrow=none;endFill=0;strokeWidth=1;curved=1;" edge="1" parent="1" source="H4yRzsa07XksfTAPNPjo-7" target="H4yRzsa07XksfTAPNPjo-35">
          <mxGeometry relative="1" as="geometry" />
        </mxCell>
        <mxCell id="H4yRzsa07XksfTAPNPjo-130" style="edgeStyle=orthogonalEdgeStyle;rounded=0;orthogonalLoop=1;jettySize=auto;html=1;exitX=0;exitY=0.5;exitDx=0;exitDy=0;strokeColor=default;endArrow=none;endFill=0;strokeWidth=1;curved=1;" edge="1" parent="1" source="H4yRzsa07XksfTAPNPjo-7" target="H4yRzsa07XksfTAPNPjo-34">
          <mxGeometry relative="1" as="geometry" />
        </mxCell>
        <mxCell id="H4yRzsa07XksfTAPNPjo-131" style="edgeStyle=orthogonalEdgeStyle;rounded=0;orthogonalLoop=1;jettySize=auto;html=1;exitX=0.25;exitY=1;exitDx=0;exitDy=0;entryX=0.5;entryY=0;entryDx=0;entryDy=0;strokeColor=default;endArrow=none;endFill=0;strokeWidth=1;curved=1;" edge="1" parent="1" source="H4yRzsa07XksfTAPNPjo-7" target="H4yRzsa07XksfTAPNPjo-33">
          <mxGeometry relative="1" as="geometry" />
        </mxCell>
        <mxCell id="H4yRzsa07XksfTAPNPjo-144" style="edgeStyle=orthogonalEdgeStyle;rounded=0;orthogonalLoop=1;jettySize=auto;html=1;entryX=0;entryY=0.5;entryDx=0;entryDy=0;endArrow=none;endFill=0;strokeWidth=2;startArrow=ERmany;startFill=0;" edge="1" parent="1" source="H4yRzsa07XksfTAPNPjo-7" target="H4yRzsa07XksfTAPNPjo-21">
          <mxGeometry relative="1" as="geometry" />
        </mxCell>
        <mxCell id="H4yRzsa07XksfTAPNPjo-7" value="Order Details" style="rounded=0;whiteSpace=wrap;html=1;fontSize=21;fontStyle=1;labelBackgroundColor=none;labelBorderColor=none;textShadow=0;fillColor=#e1d5e7;strokeColor=#9673a6;" vertex="1" parent="1">
          <mxGeometry x="-25" y="760" width="120" height="60" as="geometry" />
        </mxCell>
        <mxCell id="H4yRzsa07XksfTAPNPjo-132" style="edgeStyle=orthogonalEdgeStyle;rounded=0;orthogonalLoop=1;jettySize=auto;html=1;exitX=1;exitY=0.25;exitDx=0;exitDy=0;entryX=0;entryY=0.5;entryDx=0;entryDy=0;strokeColor=default;endArrow=none;endFill=0;strokeWidth=1;curved=1;" edge="1" parent="1" source="H4yRzsa07XksfTAPNPjo-8" target="H4yRzsa07XksfTAPNPjo-44">
          <mxGeometry relative="1" as="geometry" />
        </mxCell>
        <mxCell id="H4yRzsa07XksfTAPNPjo-133" style="edgeStyle=orthogonalEdgeStyle;rounded=0;orthogonalLoop=1;jettySize=auto;html=1;exitX=1;exitY=0.5;exitDx=0;exitDy=0;entryX=0;entryY=0.5;entryDx=0;entryDy=0;strokeColor=default;endArrow=none;endFill=0;strokeWidth=1;curved=1;" edge="1" parent="1" source="H4yRzsa07XksfTAPNPjo-8" target="H4yRzsa07XksfTAPNPjo-42">
          <mxGeometry relative="1" as="geometry" />
        </mxCell>
        <mxCell id="H4yRzsa07XksfTAPNPjo-134" style="edgeStyle=orthogonalEdgeStyle;rounded=0;orthogonalLoop=1;jettySize=auto;html=1;exitX=1;exitY=1;exitDx=0;exitDy=0;entryX=0;entryY=0.5;entryDx=0;entryDy=0;strokeColor=default;endArrow=none;endFill=0;strokeWidth=1;curved=1;" edge="1" parent="1" source="H4yRzsa07XksfTAPNPjo-8" target="H4yRzsa07XksfTAPNPjo-40">
          <mxGeometry relative="1" as="geometry" />
        </mxCell>
        <mxCell id="H4yRzsa07XksfTAPNPjo-135" style="edgeStyle=orthogonalEdgeStyle;rounded=0;orthogonalLoop=1;jettySize=auto;html=1;exitX=0.75;exitY=1;exitDx=0;exitDy=0;strokeColor=default;endArrow=none;endFill=0;strokeWidth=1;curved=1;" edge="1" parent="1" source="H4yRzsa07XksfTAPNPjo-8" target="H4yRzsa07XksfTAPNPjo-38">
          <mxGeometry relative="1" as="geometry" />
        </mxCell>
        <mxCell id="H4yRzsa07XksfTAPNPjo-136" style="edgeStyle=orthogonalEdgeStyle;rounded=0;orthogonalLoop=1;jettySize=auto;html=1;exitX=0.5;exitY=1;exitDx=0;exitDy=0;entryX=0.5;entryY=0;entryDx=0;entryDy=0;strokeColor=default;endArrow=none;endFill=0;strokeWidth=1;curved=1;" edge="1" parent="1" source="H4yRzsa07XksfTAPNPjo-8" target="H4yRzsa07XksfTAPNPjo-36">
          <mxGeometry relative="1" as="geometry" />
        </mxCell>
        <mxCell id="H4yRzsa07XksfTAPNPjo-137" style="edgeStyle=orthogonalEdgeStyle;rounded=0;orthogonalLoop=1;jettySize=auto;html=1;exitX=0.25;exitY=0;exitDx=0;exitDy=0;entryX=0.5;entryY=1;entryDx=0;entryDy=0;strokeColor=default;endArrow=none;endFill=0;strokeWidth=1;curved=1;" edge="1" parent="1" source="H4yRzsa07XksfTAPNPjo-8" target="H4yRzsa07XksfTAPNPjo-43">
          <mxGeometry relative="1" as="geometry" />
        </mxCell>
        <mxCell id="H4yRzsa07XksfTAPNPjo-151" style="edgeStyle=orthogonalEdgeStyle;rounded=0;orthogonalLoop=1;jettySize=auto;html=1;entryX=0.5;entryY=1;entryDx=0;entryDy=0;endArrow=none;endFill=0;startArrow=ERmany;startFill=0;strokeWidth=2;" edge="1" parent="1" source="H4yRzsa07XksfTAPNPjo-8" target="H4yRzsa07XksfTAPNPjo-79">
          <mxGeometry relative="1" as="geometry" />
        </mxCell>
        <mxCell id="H4yRzsa07XksfTAPNPjo-8" value="Order" style="rounded=0;whiteSpace=wrap;html=1;fontSize=21;fontStyle=1;labelBackgroundColor=none;labelBorderColor=none;textShadow=0;fillColor=#dae8fc;strokeColor=#6c8ebf;" vertex="1" parent="1">
          <mxGeometry x="540" y="950" width="120" height="60" as="geometry" />
        </mxCell>
        <mxCell id="H4yRzsa07XksfTAPNPjo-83" style="edgeStyle=orthogonalEdgeStyle;rounded=0;orthogonalLoop=1;jettySize=auto;html=1;exitX=0;exitY=0.5;exitDx=0;exitDy=0;endArrow=none;endFill=0;" edge="1" parent="1" source="H4yRzsa07XksfTAPNPjo-9" target="H4yRzsa07XksfTAPNPjo-63">
          <mxGeometry relative="1" as="geometry" />
        </mxCell>
        <mxCell id="H4yRzsa07XksfTAPNPjo-84" style="edgeStyle=orthogonalEdgeStyle;rounded=0;orthogonalLoop=1;jettySize=auto;html=1;exitX=0.25;exitY=1;exitDx=0;exitDy=0;endArrow=none;endFill=0;" edge="1" parent="1" source="H4yRzsa07XksfTAPNPjo-9" target="H4yRzsa07XksfTAPNPjo-64">
          <mxGeometry relative="1" as="geometry" />
        </mxCell>
        <mxCell id="H4yRzsa07XksfTAPNPjo-86" style="edgeStyle=orthogonalEdgeStyle;rounded=0;orthogonalLoop=1;jettySize=auto;html=1;exitX=0.75;exitY=1;exitDx=0;exitDy=0;entryX=0.5;entryY=0;entryDx=0;entryDy=0;endArrow=none;endFill=0;" edge="1" parent="1" source="H4yRzsa07XksfTAPNPjo-9" target="H4yRzsa07XksfTAPNPjo-61">
          <mxGeometry relative="1" as="geometry" />
        </mxCell>
        <mxCell id="H4yRzsa07XksfTAPNPjo-87" style="edgeStyle=orthogonalEdgeStyle;rounded=0;orthogonalLoop=1;jettySize=auto;html=1;exitX=1;exitY=0.5;exitDx=0;exitDy=0;entryX=0;entryY=0;entryDx=0;entryDy=0;endArrow=none;endFill=0;" edge="1" parent="1" source="H4yRzsa07XksfTAPNPjo-9" target="H4yRzsa07XksfTAPNPjo-59">
          <mxGeometry relative="1" as="geometry" />
        </mxCell>
        <mxCell id="H4yRzsa07XksfTAPNPjo-88" style="edgeStyle=orthogonalEdgeStyle;rounded=0;orthogonalLoop=1;jettySize=auto;html=1;exitX=1;exitY=0;exitDx=0;exitDy=0;endArrow=none;endFill=0;" edge="1" parent="1" source="H4yRzsa07XksfTAPNPjo-9" target="H4yRzsa07XksfTAPNPjo-58">
          <mxGeometry relative="1" as="geometry" />
        </mxCell>
        <mxCell id="H4yRzsa07XksfTAPNPjo-9" value="Site Information" style="rounded=0;whiteSpace=wrap;html=1;fontSize=21;fontStyle=1;labelBackgroundColor=none;labelBorderColor=none;textShadow=0;fillColor=#d0cee2;strokeColor=#56517e;" vertex="1" parent="1">
          <mxGeometry x="1310" y="800" width="120" height="60" as="geometry" />
        </mxCell>
        <mxCell id="H4yRzsa07XksfTAPNPjo-10" value="menu_id" style="ellipse;whiteSpace=wrap;html=1;fontSize=15;fontStyle=1;" vertex="1" parent="1">
          <mxGeometry x="-730" y="-40" width="90" height="60" as="geometry" />
        </mxCell>
        <mxCell id="H4yRzsa07XksfTAPNPjo-11" value="id" style="ellipse;whiteSpace=wrap;html=1;fontSize=15;fontStyle=1;" vertex="1" parent="1">
          <mxGeometry x="-610" y="-70" width="90" height="60" as="geometry" />
        </mxCell>
        <mxCell id="H4yRzsa07XksfTAPNPjo-12" value="score" style="ellipse;whiteSpace=wrap;html=1;fontSize=15;fontStyle=1;" vertex="1" parent="1">
          <mxGeometry x="-500" y="-30" width="90" height="60" as="geometry" />
        </mxCell>
        <mxCell id="H4yRzsa07XksfTAPNPjo-13" value="customer_id" style="ellipse;whiteSpace=wrap;html=1;fontSize=15;fontStyle=1;" vertex="1" parent="1">
          <mxGeometry x="-600" y="170" width="90" height="60" as="geometry" />
        </mxCell>
        <mxCell id="H4yRzsa07XksfTAPNPjo-14" value="date_recorded" style="ellipse;whiteSpace=wrap;html=1;fontSize=15;fontStyle=1;" vertex="1" parent="1">
          <mxGeometry x="-720" y="140" width="90" height="60" as="geometry" />
        </mxCell>
        <mxCell id="H4yRzsa07XksfTAPNPjo-15" value="remark" style="ellipse;whiteSpace=wrap;html=1;fontSize=15;fontStyle=1;" vertex="1" parent="1">
          <mxGeometry x="-750" y="50" width="90" height="60" as="geometry" />
        </mxCell>
        <mxCell id="H4yRzsa07XksfTAPNPjo-156" style="edgeStyle=orthogonalEdgeStyle;rounded=0;orthogonalLoop=1;jettySize=auto;html=1;entryX=0;entryY=0.5;entryDx=0;entryDy=0;endArrow=ERone;endFill=0;strokeWidth=2;" edge="1" parent="1" source="H4yRzsa07XksfTAPNPjo-16" target="H4yRzsa07XksfTAPNPjo-2">
          <mxGeometry relative="1" as="geometry" />
        </mxCell>
        <mxCell id="H4yRzsa07XksfTAPNPjo-16" value="HAS" style="rhombus;whiteSpace=wrap;html=1;" vertex="1" parent="1">
          <mxGeometry x="-300" y="140" width="80" height="80" as="geometry" />
        </mxCell>
        <mxCell id="H4yRzsa07XksfTAPNPjo-143" style="edgeStyle=orthogonalEdgeStyle;rounded=0;orthogonalLoop=1;jettySize=auto;html=1;endArrow=ERone;endFill=0;strokeWidth=2;" edge="1" parent="1" source="H4yRzsa07XksfTAPNPjo-17" target="H4yRzsa07XksfTAPNPjo-7">
          <mxGeometry relative="1" as="geometry" />
        </mxCell>
        <mxCell id="H4yRzsa07XksfTAPNPjo-17" value="HAS" style="rhombus;whiteSpace=wrap;html=1;" vertex="1" parent="1">
          <mxGeometry x="70" y="440" width="80" height="80" as="geometry" />
        </mxCell>
        <mxCell id="H4yRzsa07XksfTAPNPjo-150" style="edgeStyle=orthogonalEdgeStyle;rounded=0;orthogonalLoop=1;jettySize=auto;html=1;entryX=0;entryY=0.5;entryDx=0;entryDy=0;endArrow=ERone;endFill=0;strokeWidth=2;" edge="1" parent="1" source="H4yRzsa07XksfTAPNPjo-18" target="H4yRzsa07XksfTAPNPjo-5">
          <mxGeometry relative="1" as="geometry" />
        </mxCell>
        <mxCell id="H4yRzsa07XksfTAPNPjo-18" value="PROCESS" style="rhombus;whiteSpace=wrap;html=1;" vertex="1" parent="1">
          <mxGeometry x="930" y="320" width="80" height="80" as="geometry" />
        </mxCell>
        <mxCell id="H4yRzsa07XksfTAPNPjo-148" style="edgeStyle=orthogonalEdgeStyle;rounded=0;orthogonalLoop=1;jettySize=auto;html=1;entryX=0.5;entryY=0;entryDx=0;entryDy=0;strokeWidth=2;endArrow=none;endFill=0;" edge="1" parent="1" source="H4yRzsa07XksfTAPNPjo-19" target="H4yRzsa07XksfTAPNPjo-8">
          <mxGeometry relative="1" as="geometry" />
        </mxCell>
        <mxCell id="H4yRzsa07XksfTAPNPjo-19" value="HAS" style="rhombus;whiteSpace=wrap;html=1;" vertex="1" parent="1">
          <mxGeometry x="530" y="630" width="80" height="80" as="geometry" />
        </mxCell>
        <mxCell id="H4yRzsa07XksfTAPNPjo-146" style="edgeStyle=orthogonalEdgeStyle;rounded=0;orthogonalLoop=1;jettySize=auto;html=1;entryX=0;entryY=1;entryDx=0;entryDy=0;endArrow=ERmany;endFill=0;strokeWidth=2;" edge="1" parent="1" source="H4yRzsa07XksfTAPNPjo-20" target="H4yRzsa07XksfTAPNPjo-8">
          <mxGeometry relative="1" as="geometry" />
        </mxCell>
        <mxCell id="H4yRzsa07XksfTAPNPjo-20" value="PLACE" style="rhombus;whiteSpace=wrap;html=1;" vertex="1" parent="1">
          <mxGeometry x="-400" y="1050" width="80" height="80" as="geometry" />
        </mxCell>
        <mxCell id="H4yRzsa07XksfTAPNPjo-145" style="edgeStyle=orthogonalEdgeStyle;rounded=0;orthogonalLoop=1;jettySize=auto;html=1;entryX=0;entryY=0.5;entryDx=0;entryDy=0;endArrow=ERone;endFill=0;strokeWidth=2;" edge="1" parent="1" source="H4yRzsa07XksfTAPNPjo-21" target="H4yRzsa07XksfTAPNPjo-8">
          <mxGeometry relative="1" as="geometry" />
        </mxCell>
        <mxCell id="H4yRzsa07XksfTAPNPjo-21" value="HAS" style="rhombus;whiteSpace=wrap;html=1;" vertex="1" parent="1">
          <mxGeometry x="230" y="840" width="80" height="80" as="geometry" />
        </mxCell>
        <mxCell id="H4yRzsa07XksfTAPNPjo-22" value="name" style="ellipse;whiteSpace=wrap;html=1;fontSize=15;fontStyle=1;" vertex="1" parent="1">
          <mxGeometry x="-20" y="50" width="90" height="60" as="geometry" />
        </mxCell>
        <mxCell id="H4yRzsa07XksfTAPNPjo-23" value="id" style="ellipse;whiteSpace=wrap;html=1;fontSize=15;fontStyle=1;" vertex="1" parent="1">
          <mxGeometry x="80" width="90" height="60" as="geometry" />
        </mxCell>
        <mxCell id="H4yRzsa07XksfTAPNPjo-25" value="price" style="ellipse;whiteSpace=wrap;html=1;fontSize=15;fontStyle=1;" vertex="1" parent="1">
          <mxGeometry x="170" y="50" width="90" height="60" as="geometry" />
        </mxCell>
        <mxCell id="H4yRzsa07XksfTAPNPjo-27" value="image" style="ellipse;whiteSpace=wrap;html=1;fontSize=15;fontStyle=1;" vertex="1" parent="1">
          <mxGeometry x="-25" y="240" width="90" height="60" as="geometry" />
        </mxCell>
        <mxCell id="H4yRzsa07XksfTAPNPjo-28" value="ingredients" style="ellipse;whiteSpace=wrap;html=1;fontSize=15;fontStyle=1;" vertex="1" parent="1">
          <mxGeometry x="80" y="270" width="90" height="60" as="geometry" />
        </mxCell>
        <mxCell id="H4yRzsa07XksfTAPNPjo-29" value="status" style="ellipse;whiteSpace=wrap;html=1;fontSize=15;fontStyle=1;" vertex="1" parent="1">
          <mxGeometry x="210" y="240" width="90" height="60" as="geometry" />
        </mxCell>
        <mxCell id="H4yRzsa07XksfTAPNPjo-30" value="order_id" style="ellipse;whiteSpace=wrap;html=1;fontSize=15;fontStyle=1;" vertex="1" parent="1">
          <mxGeometry x="-135" y="640" width="90" height="60" as="geometry" />
        </mxCell>
        <mxCell id="H4yRzsa07XksfTAPNPjo-31" value="id" style="ellipse;whiteSpace=wrap;html=1;fontSize=15;fontStyle=1;" vertex="1" parent="1">
          <mxGeometry x="-30" y="620" width="90" height="60" as="geometry" />
        </mxCell>
        <mxCell id="H4yRzsa07XksfTAPNPjo-32" value="menu_id" style="ellipse;whiteSpace=wrap;html=1;fontSize=15;fontStyle=1;" vertex="1" parent="1">
          <mxGeometry x="150" y="680" width="90" height="60" as="geometry" />
        </mxCell>
        <mxCell id="H4yRzsa07XksfTAPNPjo-33" value="total_amount" style="ellipse;whiteSpace=wrap;html=1;fontSize=15;fontStyle=1;" vertex="1" parent="1">
          <mxGeometry x="-80" y="870" width="90" height="60" as="geometry" />
        </mxCell>
        <mxCell id="H4yRzsa07XksfTAPNPjo-34" value="no_of_serving" style="ellipse;whiteSpace=wrap;html=1;fontSize=15;fontStyle=1;" vertex="1" parent="1">
          <mxGeometry x="-160" y="810" width="90" height="60" as="geometry" />
        </mxCell>
        <mxCell id="H4yRzsa07XksfTAPNPjo-35" value="amount" style="ellipse;whiteSpace=wrap;html=1;fontSize=15;fontStyle=1;" vertex="1" parent="1">
          <mxGeometry x="-180" y="710" width="90" height="60" as="geometry" />
        </mxCell>
        <mxCell id="H4yRzsa07XksfTAPNPjo-36" value="total_amount" style="ellipse;whiteSpace=wrap;html=1;fontSize=15;fontStyle=1;" vertex="1" parent="1">
          <mxGeometry x="550" y="1130" width="90" height="60" as="geometry" />
        </mxCell>
        <mxCell id="H4yRzsa07XksfTAPNPjo-38" value="order_status" style="ellipse;whiteSpace=wrap;html=1;fontSize=15;fontStyle=1;" vertex="1" parent="1">
          <mxGeometry x="680" y="1120" width="90" height="60" as="geometry" />
        </mxCell>
        <mxCell id="H4yRzsa07XksfTAPNPjo-40" value="processed_by" style="ellipse;whiteSpace=wrap;html=1;fontSize=15;fontStyle=1;" vertex="1" parent="1">
          <mxGeometry x="760" y="1060" width="90" height="60" as="geometry" />
        </mxCell>
        <mxCell id="H4yRzsa07XksfTAPNPjo-42" value="order_date" style="ellipse;whiteSpace=wrap;html=1;fontSize=15;fontStyle=1;" vertex="1" parent="1">
          <mxGeometry x="760" y="980" width="90" height="60" as="geometry" />
        </mxCell>
        <mxCell id="H4yRzsa07XksfTAPNPjo-43" value="customer_id" style="ellipse;whiteSpace=wrap;html=1;fontSize=15;fontStyle=1;" vertex="1" parent="1">
          <mxGeometry x="460" y="830" width="90" height="60" as="geometry" />
        </mxCell>
        <mxCell id="H4yRzsa07XksfTAPNPjo-44" value="id" style="ellipse;whiteSpace=wrap;html=1;fontSize=15;fontStyle=1;" vertex="1" parent="1">
          <mxGeometry x="750" y="890" width="90" height="60" as="geometry" />
        </mxCell>
        <mxCell id="H4yRzsa07XksfTAPNPjo-97" style="edgeStyle=orthogonalEdgeStyle;rounded=0;orthogonalLoop=1;jettySize=auto;html=1;exitX=1;exitY=0;exitDx=0;exitDy=0;entryX=0;entryY=1;entryDx=0;entryDy=0;strokeColor=default;endArrow=none;endFill=0;strokeWidth=1;curved=1;" edge="1" parent="1" source="H4yRzsa07XksfTAPNPjo-46" target="H4yRzsa07XksfTAPNPjo-4">
          <mxGeometry relative="1" as="geometry" />
        </mxCell>
        <mxCell id="H4yRzsa07XksfTAPNPjo-46" value="paid_by" style="ellipse;whiteSpace=wrap;html=1;fontSize=15;fontStyle=1;" vertex="1" parent="1">
          <mxGeometry x="470" y="360" width="90" height="60" as="geometry" />
        </mxCell>
        <mxCell id="H4yRzsa07XksfTAPNPjo-47" value="date" style="ellipse;whiteSpace=wrap;html=1;fontSize=15;fontStyle=1;" vertex="1" parent="1">
          <mxGeometry x="570" y="400" width="90" height="60" as="geometry" />
        </mxCell>
        <mxCell id="H4yRzsa07XksfTAPNPjo-48" value="processed_by" style="ellipse;whiteSpace=wrap;html=1;fontSize=15;fontStyle=1;" vertex="1" parent="1">
          <mxGeometry x="680" y="400" width="90" height="60" as="geometry" />
        </mxCell>
        <mxCell id="H4yRzsa07XksfTAPNPjo-49" value="amount" style="ellipse;whiteSpace=wrap;html=1;fontSize=15;fontStyle=1;" vertex="1" parent="1">
          <mxGeometry x="740" y="220" width="90" height="60" as="geometry" />
        </mxCell>
        <mxCell id="H4yRzsa07XksfTAPNPjo-50" value="id" style="ellipse;whiteSpace=wrap;html=1;fontSize=15;fontStyle=1;" vertex="1" parent="1">
          <mxGeometry x="620" y="180" width="90" height="60" as="geometry" />
        </mxCell>
        <mxCell id="H4yRzsa07XksfTAPNPjo-51" value="order_id" style="ellipse;whiteSpace=wrap;html=1;fontSize=15;fontStyle=1;" vertex="1" parent="1">
          <mxGeometry x="490" y="190" width="90" height="60" as="geometry" />
        </mxCell>
        <mxCell id="H4yRzsa07XksfTAPNPjo-52" value="id" style="ellipse;whiteSpace=wrap;html=1;fontSize=15;fontStyle=1;" vertex="1" parent="1">
          <mxGeometry x="1340" y="170" width="90" height="60" as="geometry" />
        </mxCell>
        <mxCell id="H4yRzsa07XksfTAPNPjo-53" value="contact" style="ellipse;whiteSpace=wrap;html=1;fontSize=15;fontStyle=1;" vertex="1" parent="1">
          <mxGeometry x="1440" y="190" width="90" height="60" as="geometry" />
        </mxCell>
        <mxCell id="H4yRzsa07XksfTAPNPjo-54" value="passowrd" style="ellipse;whiteSpace=wrap;html=1;fontSize=15;fontStyle=1;" vertex="1" parent="1">
          <mxGeometry x="1500" y="270" width="90" height="60" as="geometry" />
        </mxCell>
        <mxCell id="H4yRzsa07XksfTAPNPjo-55" value="user_name" style="ellipse;whiteSpace=wrap;html=1;fontSize=15;fontStyle=1;" vertex="1" parent="1">
          <mxGeometry x="1500" y="350" width="90" height="60" as="geometry" />
        </mxCell>
        <mxCell id="H4yRzsa07XksfTAPNPjo-56" value="email" style="ellipse;whiteSpace=wrap;html=1;fontSize=15;fontStyle=1;" vertex="1" parent="1">
          <mxGeometry x="1430" y="420" width="90" height="60" as="geometry" />
        </mxCell>
        <mxCell id="H4yRzsa07XksfTAPNPjo-57" value="full_name" style="ellipse;whiteSpace=wrap;html=1;fontSize=15;fontStyle=1;" vertex="1" parent="1">
          <mxGeometry x="1240" y="190" width="90" height="60" as="geometry" />
        </mxCell>
        <mxCell id="H4yRzsa07XksfTAPNPjo-58" value="contact_info" style="ellipse;whiteSpace=wrap;html=1;fontSize=15;fontStyle=1;" vertex="1" parent="1">
          <mxGeometry x="1520" y="770" width="90" height="60" as="geometry" />
        </mxCell>
        <mxCell id="H4yRzsa07XksfTAPNPjo-59" value="last_updated" style="ellipse;whiteSpace=wrap;html=1;fontSize=15;fontStyle=1;" vertex="1" parent="1">
          <mxGeometry x="1510" y="860" width="90" height="60" as="geometry" />
        </mxCell>
        <mxCell id="H4yRzsa07XksfTAPNPjo-60" value="address" style="ellipse;whiteSpace=wrap;html=1;fontSize=15;fontStyle=1;" vertex="1" parent="1">
          <mxGeometry x="1290" y="940" width="90" height="60" as="geometry" />
        </mxCell>
        <mxCell id="H4yRzsa07XksfTAPNPjo-61" value="user_id" style="ellipse;whiteSpace=wrap;html=1;fontSize=15;fontStyle=1;" vertex="1" parent="1">
          <mxGeometry x="1420" y="940" width="90" height="60" as="geometry" />
        </mxCell>
        <mxCell id="H4yRzsa07XksfTAPNPjo-62" value="description" style="ellipse;whiteSpace=wrap;html=1;fontSize=15;fontStyle=1;" vertex="1" parent="1">
          <mxGeometry x="1440" y="700" width="90" height="60" as="geometry" />
        </mxCell>
        <mxCell id="H4yRzsa07XksfTAPNPjo-63" value="id" style="ellipse;whiteSpace=wrap;html=1;fontSize=15;fontStyle=1;" vertex="1" parent="1">
          <mxGeometry x="1160" y="800" width="90" height="60" as="geometry" />
        </mxCell>
        <mxCell id="H4yRzsa07XksfTAPNPjo-64" value="name" style="ellipse;whiteSpace=wrap;html=1;fontSize=15;fontStyle=1;" vertex="1" parent="1">
          <mxGeometry x="1200" y="890" width="90" height="60" as="geometry" />
        </mxCell>
        <mxCell id="H4yRzsa07XksfTAPNPjo-117" style="edgeStyle=orthogonalEdgeStyle;rounded=0;orthogonalLoop=1;jettySize=auto;html=1;exitX=1;exitY=1;exitDx=0;exitDy=0;entryX=0;entryY=0.25;entryDx=0;entryDy=0;strokeColor=default;endArrow=none;endFill=0;strokeWidth=1;curved=1;" edge="1" parent="1" source="H4yRzsa07XksfTAPNPjo-67" target="H4yRzsa07XksfTAPNPjo-6">
          <mxGeometry relative="1" as="geometry" />
        </mxCell>
        <mxCell id="H4yRzsa07XksfTAPNPjo-67" value="first_name" style="ellipse;whiteSpace=wrap;html=1;fontSize=15;fontStyle=1;" vertex="1" parent="1">
          <mxGeometry x="-900" y="570" width="90" height="60" as="geometry" />
        </mxCell>
        <mxCell id="H4yRzsa07XksfTAPNPjo-68" value="id" style="ellipse;whiteSpace=wrap;html=1;fontSize=15;fontStyle=1;" vertex="1" parent="1">
          <mxGeometry x="-780" y="550" width="90" height="60" as="geometry" />
        </mxCell>
        <mxCell id="H4yRzsa07XksfTAPNPjo-69" value="last_name" style="ellipse;whiteSpace=wrap;html=1;fontSize=15;fontStyle=1;" vertex="1" parent="1">
          <mxGeometry x="-610" y="590" width="90" height="60" as="geometry" />
        </mxCell>
        <mxCell id="H4yRzsa07XksfTAPNPjo-70" value="middle_name" style="ellipse;whiteSpace=wrap;html=1;fontSize=15;fontStyle=1;" vertex="1" parent="1">
          <mxGeometry x="-550" y="650" width="90" height="60" as="geometry" />
        </mxCell>
        <mxCell id="H4yRzsa07XksfTAPNPjo-71" value="account_status" style="ellipse;whiteSpace=wrap;html=1;fontSize=15;fontStyle=1;" vertex="1" parent="1">
          <mxGeometry x="-520" y="730" width="90" height="60" as="geometry" />
        </mxCell>
        <mxCell id="H4yRzsa07XksfTAPNPjo-72" value="password" style="ellipse;whiteSpace=wrap;html=1;fontSize=15;fontStyle=1;" vertex="1" parent="1">
          <mxGeometry x="-510" y="820" width="90" height="60" as="geometry" />
        </mxCell>
        <mxCell id="H4yRzsa07XksfTAPNPjo-73" value="user_name" style="ellipse;whiteSpace=wrap;html=1;fontSize=15;fontStyle=1;" vertex="1" parent="1">
          <mxGeometry x="-740" y="910" width="90" height="60" as="geometry" />
        </mxCell>
        <mxCell id="H4yRzsa07XksfTAPNPjo-74" value="profile_image" style="ellipse;whiteSpace=wrap;html=1;fontSize=15;fontStyle=1;" vertex="1" parent="1">
          <mxGeometry x="-880" y="890" width="90" height="60" as="geometry" />
        </mxCell>
        <mxCell id="H4yRzsa07XksfTAPNPjo-119" style="edgeStyle=orthogonalEdgeStyle;rounded=0;orthogonalLoop=1;jettySize=auto;html=1;exitX=1;exitY=0.5;exitDx=0;exitDy=0;entryX=0;entryY=0.25;entryDx=0;entryDy=0;strokeColor=default;endArrow=none;endFill=0;strokeWidth=1;curved=1;" edge="1" parent="1" source="H4yRzsa07XksfTAPNPjo-75" target="H4yRzsa07XksfTAPNPjo-6">
          <mxGeometry relative="1" as="geometry" />
        </mxCell>
        <mxCell id="H4yRzsa07XksfTAPNPjo-75" value="landline" style="ellipse;whiteSpace=wrap;html=1;fontSize=15;fontStyle=1;" vertex="1" parent="1">
          <mxGeometry x="-970" y="810" width="90" height="60" as="geometry" />
        </mxCell>
        <mxCell id="H4yRzsa07XksfTAPNPjo-118" style="edgeStyle=orthogonalEdgeStyle;rounded=0;orthogonalLoop=1;jettySize=auto;html=1;exitX=1;exitY=0.5;exitDx=0;exitDy=0;entryX=0;entryY=0.75;entryDx=0;entryDy=0;strokeColor=default;endArrow=none;endFill=0;strokeWidth=1;curved=1;" edge="1" parent="1" source="H4yRzsa07XksfTAPNPjo-76" target="H4yRzsa07XksfTAPNPjo-6">
          <mxGeometry relative="1" as="geometry" />
        </mxCell>
        <mxCell id="H4yRzsa07XksfTAPNPjo-76" value="phone" style="ellipse;whiteSpace=wrap;html=1;fontSize=15;fontStyle=1;" vertex="1" parent="1">
          <mxGeometry x="-910" y="730" width="90" height="60" as="geometry" />
        </mxCell>
        <mxCell id="H4yRzsa07XksfTAPNPjo-77" value="email" style="ellipse;whiteSpace=wrap;html=1;fontSize=15;fontStyle=1;" vertex="1" parent="1">
          <mxGeometry x="-870" y="650" width="90" height="60" as="geometry" />
        </mxCell>
        <mxCell id="H4yRzsa07XksfTAPNPjo-139" style="edgeStyle=orthogonalEdgeStyle;rounded=0;orthogonalLoop=1;jettySize=auto;html=1;entryX=0.5;entryY=0;entryDx=0;entryDy=0;endArrow=ERone;endFill=0;strokeWidth=2;" edge="1" parent="1" source="H4yRzsa07XksfTAPNPjo-78" target="H4yRzsa07XksfTAPNPjo-6">
          <mxGeometry relative="1" as="geometry" />
        </mxCell>
        <mxCell id="H4yRzsa07XksfTAPNPjo-78" value="RATE" style="rhombus;whiteSpace=wrap;html=1;" vertex="1" parent="1">
          <mxGeometry x="-640" y="420" width="80" height="80" as="geometry" />
        </mxCell>
        <mxCell id="H4yRzsa07XksfTAPNPjo-152" style="edgeStyle=orthogonalEdgeStyle;rounded=0;orthogonalLoop=1;jettySize=auto;html=1;entryX=0;entryY=1;entryDx=0;entryDy=0;endArrow=ERone;endFill=0;strokeWidth=2;" edge="1" parent="1" source="H4yRzsa07XksfTAPNPjo-79" target="H4yRzsa07XksfTAPNPjo-5">
          <mxGeometry relative="1" as="geometry">
            <Array as="points">
              <mxPoint x="970" y="530" />
              <mxPoint x="1280" y="530" />
            </Array>
          </mxGeometry>
        </mxCell>
        <mxCell id="H4yRzsa07XksfTAPNPjo-79" value="PROCESS" style="rhombus;whiteSpace=wrap;html=1;" vertex="1" parent="1">
          <mxGeometry x="930" y="740" width="80" height="80" as="geometry" />
        </mxCell>
        <mxCell id="H4yRzsa07XksfTAPNPjo-154" style="edgeStyle=orthogonalEdgeStyle;rounded=0;orthogonalLoop=1;jettySize=auto;html=1;entryX=0.5;entryY=0;entryDx=0;entryDy=0;endArrow=ERone;endFill=0;strokeWidth=2;" edge="1" parent="1" source="H4yRzsa07XksfTAPNPjo-80" target="H4yRzsa07XksfTAPNPjo-9">
          <mxGeometry relative="1" as="geometry" />
        </mxCell>
        <mxCell id="H4yRzsa07XksfTAPNPjo-80" value="UPDATE" style="rhombus;whiteSpace=wrap;html=1;" vertex="1" parent="1">
          <mxGeometry x="1300" y="570" width="80" height="80" as="geometry" />
        </mxCell>
        <mxCell id="H4yRzsa07XksfTAPNPjo-85" style="edgeStyle=orthogonalEdgeStyle;rounded=0;orthogonalLoop=1;jettySize=auto;html=1;exitX=0.5;exitY=1;exitDx=0;exitDy=0;entryX=0.633;entryY=0.029;entryDx=0;entryDy=0;entryPerimeter=0;endArrow=none;endFill=0;" edge="1" parent="1" source="H4yRzsa07XksfTAPNPjo-9" target="H4yRzsa07XksfTAPNPjo-60">
          <mxGeometry relative="1" as="geometry" />
        </mxCell>
        <mxCell id="H4yRzsa07XksfTAPNPjo-90" style="edgeStyle=orthogonalEdgeStyle;rounded=0;orthogonalLoop=1;jettySize=auto;html=1;exitX=0.75;exitY=0;exitDx=0;exitDy=0;entryX=0.011;entryY=0.679;entryDx=0;entryDy=0;entryPerimeter=0;endArrow=none;endFill=0;" edge="1" parent="1" source="H4yRzsa07XksfTAPNPjo-9" target="H4yRzsa07XksfTAPNPjo-62">
          <mxGeometry relative="1" as="geometry" />
        </mxCell>
        <mxCell id="H4yRzsa07XksfTAPNPjo-92" style="edgeStyle=orthogonalEdgeStyle;rounded=0;orthogonalLoop=1;jettySize=auto;html=1;exitX=0.5;exitY=0;exitDx=0;exitDy=0;entryX=0.333;entryY=0.913;entryDx=0;entryDy=0;entryPerimeter=0;strokeColor=default;endArrow=none;endFill=0;strokeWidth=1;curved=1;" edge="1" parent="1" source="H4yRzsa07XksfTAPNPjo-5" target="H4yRzsa07XksfTAPNPjo-52">
          <mxGeometry relative="1" as="geometry" />
        </mxCell>
        <mxCell id="H4yRzsa07XksfTAPNPjo-100" style="edgeStyle=orthogonalEdgeStyle;rounded=0;orthogonalLoop=1;jettySize=auto;html=1;exitX=1;exitY=0;exitDx=0;exitDy=0;entryX=0.056;entryY=0.763;entryDx=0;entryDy=0;entryPerimeter=0;strokeColor=default;endArrow=none;endFill=0;strokeWidth=1;curved=1;" edge="1" parent="1" source="H4yRzsa07XksfTAPNPjo-4" target="H4yRzsa07XksfTAPNPjo-49">
          <mxGeometry relative="1" as="geometry" />
        </mxCell>
        <mxCell id="H4yRzsa07XksfTAPNPjo-106" style="edgeStyle=orthogonalEdgeStyle;rounded=0;orthogonalLoop=1;jettySize=auto;html=1;exitX=1;exitY=1;exitDx=0;exitDy=0;entryX=0.011;entryY=0.262;entryDx=0;entryDy=0;entryPerimeter=0;strokeColor=default;endArrow=none;endFill=0;strokeWidth=1;curved=1;" edge="1" parent="1" source="H4yRzsa07XksfTAPNPjo-2" target="H4yRzsa07XksfTAPNPjo-29">
          <mxGeometry relative="1" as="geometry" />
        </mxCell>
        <mxCell id="H4yRzsa07XksfTAPNPjo-107" style="edgeStyle=orthogonalEdgeStyle;rounded=0;orthogonalLoop=1;jettySize=auto;html=1;exitX=0.5;exitY=1;exitDx=0;exitDy=0;entryX=0.622;entryY=0.046;entryDx=0;entryDy=0;entryPerimeter=0;strokeColor=default;endArrow=none;endFill=0;strokeWidth=1;curved=1;" edge="1" parent="1" source="H4yRzsa07XksfTAPNPjo-2" target="H4yRzsa07XksfTAPNPjo-28">
          <mxGeometry relative="1" as="geometry" />
        </mxCell>
        <mxCell id="H4yRzsa07XksfTAPNPjo-113" style="edgeStyle=orthogonalEdgeStyle;rounded=0;orthogonalLoop=1;jettySize=auto;html=1;exitX=0;exitY=1;exitDx=0;exitDy=0;entryX=0.978;entryY=0.362;entryDx=0;entryDy=0;entryPerimeter=0;strokeColor=default;endArrow=none;endFill=0;strokeWidth=1;curved=1;" edge="1" parent="1" source="H4yRzsa07XksfTAPNPjo-1" target="H4yRzsa07XksfTAPNPjo-14">
          <mxGeometry relative="1" as="geometry" />
        </mxCell>
        <mxCell id="H4yRzsa07XksfTAPNPjo-114" style="edgeStyle=orthogonalEdgeStyle;rounded=0;orthogonalLoop=1;jettySize=auto;html=1;exitX=0.25;exitY=1;exitDx=0;exitDy=0;entryX=0.289;entryY=-0.021;entryDx=0;entryDy=0;entryPerimeter=0;strokeColor=default;endArrow=none;endFill=0;strokeWidth=1;curved=1;" edge="1" parent="1" source="H4yRzsa07XksfTAPNPjo-1" target="H4yRzsa07XksfTAPNPjo-13">
          <mxGeometry relative="1" as="geometry" />
        </mxCell>
        <mxCell id="H4yRzsa07XksfTAPNPjo-115" style="edgeStyle=orthogonalEdgeStyle;rounded=0;orthogonalLoop=1;jettySize=auto;html=1;exitX=0;exitY=0.25;exitDx=0;exitDy=0;entryX=1;entryY=0.729;entryDx=0;entryDy=0;entryPerimeter=0;strokeColor=default;endArrow=none;endFill=0;strokeWidth=1;curved=1;" edge="1" parent="1" source="H4yRzsa07XksfTAPNPjo-6" target="H4yRzsa07XksfTAPNPjo-77">
          <mxGeometry relative="1" as="geometry" />
        </mxCell>
        <mxCell id="H4yRzsa07XksfTAPNPjo-116" style="edgeStyle=orthogonalEdgeStyle;rounded=0;orthogonalLoop=1;jettySize=auto;html=1;exitX=0.25;exitY=0;exitDx=0;exitDy=0;entryX=0.678;entryY=1.046;entryDx=0;entryDy=0;entryPerimeter=0;strokeColor=default;endArrow=none;endFill=0;strokeWidth=1;curved=1;" edge="1" parent="1" source="H4yRzsa07XksfTAPNPjo-6" target="H4yRzsa07XksfTAPNPjo-68">
          <mxGeometry relative="1" as="geometry" />
        </mxCell>
        <mxCell id="H4yRzsa07XksfTAPNPjo-157" value="Food Delivery Management System" style="text;html=1;align=center;verticalAlign=middle;whiteSpace=wrap;rounded=0;fontStyle=1;fontSize=35;" vertex="1" parent="1">
          <mxGeometry x="190" y="-60" width="860" height="30" as="geometry" />
        </mxCell>
        <mxCell id="H4yRzsa07XksfTAPNPjo-159" value="By&amp;nbsp; Nikhil Jagtap" style="text;html=1;align=center;verticalAlign=middle;whiteSpace=wrap;rounded=0;fontStyle=2;fontSize=25;" vertex="1" parent="1">
          <mxGeometry x="400" y="-15" width="860" height="30" as="geometry" />
        </mxCell>
      </root>
    </mxGraphModel>
  </diagram>
</mxfile>
